<svg xmlns="http://www.w3.org/2000/svg" viewBox="-100 -100 200 200"><defs><radialGradient id="g-ruby" cx="35%" cy="28%" r="75%"><stop offset=".1" stop-color="#9a2a24"/><stop offset="1" stop-color="#3e0b0d"/></radialGradient><radialGradient id="g-cobalt" cx="35%" cy="28%" r="75%"><stop offset=".1" stop-color="#2b5478"/><stop offset="1" stop-color="#0e1e33"/></radialGradient><radialGradient id="g-amber" cx="35%" cy="28%" r="75%"><stop offset=".1" stop-color="#b8872f"/><stop offset="1" stop-color="#4e3412"/></radialGradient><radialGradient id="g-emerald" cx="35%" cy="28%" r="75%"><stop offset=".1" stop-color="#3a6634"/><stop offset="1" stop-color="#142816"/></radialGradient><radialGradient id="g-violet" cx="35%" cy="28%" r="75%"><stop offset=".1" stop-color="#5a3f7c"/><stop offset="1" stop-color="#1e1430"/></radialGradient><radialGradient id="g-smoke" cx="35%" cy="28%" r="75%"><stop offset=".1" stop-color="#3e3a35"/><stop offset="1" stop-color="#110f0d"/></radialGradient><radialGradient id="g-umber" cx="35%" cy="28%" r="75%"><stop offset=".1" stop-color="#5a4629"/><stop offset="1" stop-color="#170f07"/></radialGradient><radialGradient id="g-honey" cx="35%" cy="28%" r="75%"><stop offset=".1" stop-color="#7e6030"/><stop offset="1" stop-color="#231808"/></radialGradient><radialGradient id="g-olive" cx="35%" cy="28%" r="75%"><stop offset=".1" stop-color="#56673a"/><stop offset="1" stop-color="#18200e"/></radialGradient><linearGradient id="sheen" x1="0" y1="0" x2="0" y2="1"><stop offset="0" stop-color="#fff" stop-opacity=".22"/><stop offset=".55" stop-color="#fff" stop-opacity="0"/></linearGradient></defs><path d="M80 0 L96 0 A96 96 0 0 1 92.7 24.8 L77.3 20.7 A80 80 0 0 0 80 0Z" fill="url(#g-amber)" stroke="#0c0b0d" stroke-width="2.2"/><path d="M77.3 20.7 L92.7 24.8 A96 96 0 0 1 83.1 48 L69.3 40 A80 80 0 0 0 77.3 20.7Z" fill="url(#g-ruby)" stroke="#0c0b0d" stroke-width="2.2"/><path d="M69.3 40 L83.1 48 A96 96 0 0 1 67.9 67.9 L56.6 56.6 A80 80 0 0 0 69.3 40Z" fill="url(#g-cobalt)" stroke="#0c0b0d" stroke-width="2.2"/><path d="M56.6 56.6 L67.9 67.9 A96 96 0 0 1 48 83.1 L40 69.3 A80 80 0 0 0 56.6 56.6Z" fill="url(#g-emerald)" stroke="#0c0b0d" stroke-width="2.2"/><path d="M40 69.3 L48 83.1 A96 96 0 0 1 24.8 92.7 L20.7 77.3 A80 80 0 0 0 40 69.3Z" fill="url(#g-amber)" stroke="#0c0b0d" stroke-width="2.2"/><path d="M20.7 77.3 L24.8 92.7 A96 96 0 0 1 0 96 L0 80 A80 80 0 0 0 20.7 77.3Z" fill="url(#g-ruby)" stroke="#0c0b0d" stroke-width="2.2"/><path d="M0 80 L0 96 A96 96 0 0 1 -24.8 92.7 L-20.7 77.3 A80 80 0 0 0 0 80Z" fill="url(#g-cobalt)" stroke="#0c0b0d" stroke-width="2.2"/><path d="M-20.7 77.3 L-24.8 92.7 A96 96 0 0 1 -48 83.1 L-40 69.3 A80 80 0 0 0 -20.7 77.3Z" fill="url(#g-emerald)" stroke="#0c0b0d" stroke-width="2.2"/><path d="M-40 69.3 L-48 83.1 A96 96 0 0 1 -67.9 67.9 L-56.6 56.6 A80 80 0 0 0 -40 69.3Z" fill="url(#g-amber)" stroke="#0c0b0d" stroke-width="2.2"/><path d="M-56.6 56.6 L-67.9 67.9 A96 96 0 0 1 -83.1 48 L-69.3 40 A80 80 0 0 0 -56.6 56.6Z" fill="url(#g-ruby)" stroke="#0c0b0d" stroke-width="2.2"/><path d="M-69.3 40 L-83.1 48 A96 96 0 0 1 -92.7 24.8 L-77.3 20.7 A80 80 0 0 0 -69.3 40Z" fill="url(#g-cobalt)" stroke="#0c0b0d" stroke-width="2.2"/><path d="M-77.3 20.7 L-92.7 24.8 A96 96 0 0 1 -96 0 L-80 0 A80 80 0 0 0 -77.3 20.7Z" fill="url(#g-emerald)" stroke="#0c0b0d" stroke-width="2.2"/><path d="M-80 0 L-96 0 A96 96 0 0 1 -92.7 -24.8 L-77.3 -20.7 A80 80 0 0 0 -80 0Z" fill="url(#g-amber)" stroke="#0c0b0d" stroke-width="2.2"/><path d="M-77.3 -20.7 L-92.7 -24.8 A96 96 0 0 1 -83.1 -48 L-69.3 -40 A80 80 0 0 0 -77.3 -20.7Z" fill="url(#g-ruby)" stroke="#0c0b0d" stroke-width="2.2"/><path d="M-69.3 -40 L-83.1 -48 A96 96 0 0 1 -67.9 -67.9 L-56.6 -56.6 A80 80 0 0 0 -69.3 -40Z" fill="url(#g-cobalt)" stroke="#0c0b0d" stroke-width="2.2"/><path d="M-56.6 -56.6 L-67.9 -67.9 A96 96 0 0 1 -48 -83.1 L-40 -69.3 A80 80 0 0 0 -56.6 -56.6Z" fill="url(#g-emerald)" stroke="#0c0b0d" stroke-width="2.2"/><path d="M-40 -69.3 L-48 -83.1 A96 96 0 0 1 -24.8 -92.7 L-20.7 -77.3 A80 80 0 0 0 -40 -69.3Z" fill="url(#g-amber)" stroke="#0c0b0d" stroke-width="2.2"/><path d="M-20.7 -77.3 L-24.8 -92.7 A96 96 0 0 1 -0 -96 L-0 -80 A80 80 0 0 0 -20.7 -77.3Z" fill="url(#g-ruby)" stroke="#0c0b0d" stroke-width="2.2"/><path d="M-0 -80 L-0 -96 A96 96 0 0 1 24.8 -92.7 L20.7 -77.3 A80 80 0 0 0 -0 -80Z" fill="url(#g-cobalt)" stroke="#0c0b0d" stroke-width="2.2"/><path d="M20.7 -77.3 L24.8 -92.7 A96 96 0 0 1 48 -83.1 L40 -69.3 A80 80 0 0 0 20.7 -77.3Z" fill="url(#g-emerald)" stroke="#0c0b0d" stroke-width="2.2"/><path d="M40 -69.3 L48 -83.1 A96 96 0 0 1 67.9 -67.9 L56.6 -56.6 A80 80 0 0 0 40 -69.3Z" fill="url(#g-amber)" stroke="#0c0b0d" stroke-width="2.2"/><path d="M56.6 -56.6 L67.9 -67.9 A96 96 0 0 1 83.1 -48 L69.3 -40 A80 80 0 0 0 56.6 -56.6Z" fill="url(#g-ruby)" stroke="#0c0b0d" stroke-width="2.2"/><path d="M69.3 -40 L83.1 -48 A96 96 0 0 1 92.7 -24.8 L77.3 -20.7 A80 80 0 0 0 69.3 -40Z" fill="url(#g-cobalt)" stroke="#0c0b0d" stroke-width="2.2"/><path d="M77.3 -20.7 L92.7 -24.8 A96 96 0 0 1 96 -0 L80 -0 A80 80 0 0 0 77.3 -20.7Z" fill="url(#g-emerald)" stroke="#0c0b0d" stroke-width="2.2"/><circle r="80" fill="url(#g-violet)" stroke="#0c0b0d" stroke-width="3"/><path d="M-7.3 -30 L-10.5 -60 Q-10.5 -75 0 -77 Q10.5 -75 10.5 -60 L7.4 -30Z" fill="url(#g-ruby)" stroke="#0c0b0d" stroke-width="3" stroke-linejoin="round"/><circle cx="0" cy="-60" r="5" fill="url(#g-amber)" stroke="#0c0b0d" stroke-width="1.8"/><circle cx="18.1" cy="-67.6" r="4.5" fill="url(#g-emerald)" stroke="#0c0b0d" stroke-width="1.6"/><path d="M8.6 -29.7 L20.9 -57.2 Q28.4 -70.2 38.5 -66.7 Q46.6 -59.7 39.1 -46.7 L21.4 -22.3Z" fill="url(#g-cobalt)" stroke="#0c0b0d" stroke-width="3" stroke-linejoin="round"/><circle cx="30" cy="-52" r="5" fill="url(#g-amber)" stroke="#0c0b0d" stroke-width="1.8"/><circle cx="49.5" cy="-49.5" r="4.5" fill="url(#g-emerald)" stroke="#0c0b0d" stroke-width="1.6"/><path d="M22.3 -21.4 L46.7 -39.1 Q59.7 -46.6 66.7 -38.5 Q70.2 -28.4 57.2 -20.9 L29.7 -8.6Z" fill="url(#g-ruby)" stroke="#0c0b0d" stroke-width="3" stroke-linejoin="round"/><circle cx="52" cy="-30" r="5" fill="url(#g-amber)" stroke="#0c0b0d" stroke-width="1.8"/><circle cx="67.6" cy="-18.1" r="4.5" fill="url(#g-emerald)" stroke="#0c0b0d" stroke-width="1.6"/><path d="M30 -7.3 L60 -10.5 Q75 -10.5 77 0 Q75 10.5 60 10.5 L30 7.3Z" fill="url(#g-cobalt)" stroke="#0c0b0d" stroke-width="3" stroke-linejoin="round"/><circle cx="60" cy="0" r="5" fill="url(#g-amber)" stroke="#0c0b0d" stroke-width="1.8"/><circle cx="67.6" cy="18.1" r="4.5" fill="url(#g-emerald)" stroke="#0c0b0d" stroke-width="1.6"/><path d="M29.7 8.6 L57.2 20.9 Q70.2 28.4 66.7 38.5 Q59.7 46.6 46.7 39.1 L22.3 21.4Z" fill="url(#g-ruby)" stroke="#0c0b0d" stroke-width="3" stroke-linejoin="round"/><circle cx="52" cy="30" r="5" fill="url(#g-amber)" stroke="#0c0b0d" stroke-width="1.8"/><circle cx="49.5" cy="49.5" r="4.5" fill="url(#g-emerald)" stroke="#0c0b0d" stroke-width="1.6"/><path d="M21.4 22.3 L39.1 46.7 Q46.6 59.7 38.5 66.7 Q28.4 70.2 20.9 57.2 L8.6 29.7Z" fill="url(#g-cobalt)" stroke="#0c0b0d" stroke-width="3" stroke-linejoin="round"/><circle cx="30" cy="52" r="5" fill="url(#g-amber)" stroke="#0c0b0d" stroke-width="1.8"/><circle cx="18.1" cy="67.6" r="4.5" fill="url(#g-emerald)" stroke="#0c0b0d" stroke-width="1.6"/><path d="M7.4 30 L10.5 60 Q10.5 75 0 77 Q-10.5 75 -10.5 60 L-7.3 30Z" fill="url(#g-ruby)" stroke="#0c0b0d" stroke-width="3" stroke-linejoin="round"/><circle cx="0" cy="60" r="5" fill="url(#g-amber)" stroke="#0c0b0d" stroke-width="1.8"/><circle cx="-18.1" cy="67.6" r="4.5" fill="url(#g-emerald)" stroke="#0c0b0d" stroke-width="1.6"/><path d="M-8.6 29.7 L-20.9 57.2 Q-28.4 70.2 -38.5 66.7 Q-46.6 59.7 -39.1 46.7 L-21.4 22.3Z" fill="url(#g-cobalt)" stroke="#0c0b0d" stroke-width="3" stroke-linejoin="round"/><circle cx="-30" cy="52" r="5" fill="url(#g-amber)" stroke="#0c0b0d" stroke-width="1.8"/><circle cx="-49.5" cy="49.5" r="4.5" fill="url(#g-emerald)" stroke="#0c0b0d" stroke-width="1.6"/><path d="M-22.3 21.4 L-46.7 39.1 Q-59.7 46.6 -66.7 38.5 Q-70.2 28.4 -57.2 20.9 L-29.7 8.6Z" fill="url(#g-ruby)" stroke="#0c0b0d" stroke-width="3" stroke-linejoin="round"/><circle cx="-52" cy="30" r="5" fill="url(#g-amber)" stroke="#0c0b0d" stroke-width="1.8"/><circle cx="-67.6" cy="18.1" r="4.5" fill="url(#g-emerald)" stroke="#0c0b0d" stroke-width="1.6"/><path d="M-30 7.4 L-60 10.5 Q-75 10.5 -77 0 Q-75 -10.5 -60 -10.5 L-30 -7.3Z" fill="url(#g-cobalt)" stroke="#0c0b0d" stroke-width="3" stroke-linejoin="round"/><circle cx="-60" cy="0" r="5" fill="url(#g-amber)" stroke="#0c0b0d" stroke-width="1.8"/><circle cx="-67.6" cy="-18.1" r="4.5" fill="url(#g-emerald)" stroke="#0c0b0d" stroke-width="1.6"/><path d="M-29.7 -8.6 L-57.2 -20.9 Q-70.2 -28.4 -66.7 -38.5 Q-59.7 -46.6 -46.7 -39.1 L-22.3 -21.4Z" fill="url(#g-ruby)" stroke="#0c0b0d" stroke-width="3" stroke-linejoin="round"/><circle cx="-52" cy="-30" r="5" fill="url(#g-amber)" stroke="#0c0b0d" stroke-width="1.8"/><circle cx="-49.5" cy="-49.5" r="4.5" fill="url(#g-emerald)" stroke="#0c0b0d" stroke-width="1.6"/><path d="M-21.4 -22.3 L-39.1 -46.7 Q-46.6 -59.7 -38.5 -66.7 Q-28.4 -70.2 -20.9 -57.2 L-8.6 -29.7Z" fill="url(#g-cobalt)" stroke="#0c0b0d" stroke-width="3" stroke-linejoin="round"/><circle cx="-30" cy="-52" r="5" fill="url(#g-amber)" stroke="#0c0b0d" stroke-width="1.8"/><circle cx="-18.1" cy="-67.6" r="4.5" fill="url(#g-emerald)" stroke="#0c0b0d" stroke-width="1.6"/><circle r="28" fill="url(#g-amber)" stroke="#0c0b0d" stroke-width="3"/><circle cx="8.3" cy="8.3" r="11.8" fill="url(#g-ruby)" stroke="#0c0b0d" stroke-width="2"/><circle cx="-8.3" cy="8.3" r="11.8" fill="url(#g-ruby)" stroke="#0c0b0d" stroke-width="2"/><circle cx="-8.3" cy="-8.3" r="11.8" fill="url(#g-ruby)" stroke="#0c0b0d" stroke-width="2"/><circle cx="8.3" cy="-8.3" r="11.8" fill="url(#g-ruby)" stroke="#0c0b0d" stroke-width="2"/><circle r="7.8" fill="#d8b36a" stroke="#0c0b0d" stroke-width="2"/><circle r="96" fill="none" stroke="#0c0b0d" stroke-width="5"/><circle r="100" fill="url(#sheen)" opacity=".8"/></svg>